<mxfile host="app.diagrams.net" modified="2022-02-09T07:48:59.038Z" agent="5.0 (Macintosh)" etag="zu-BLGDlj4YuhjBv_6Vd" version="16.5.4" type="github" pages="2">
  <diagram id="TwjGwYmGREkL8a1qZLIq" name="Snow2SolMan">
    <mxGraphModel dx="893" dy="626" grid="0" gridSize="10" guides="1" tooltips="1" connect="1" arrows="1" fold="1" page="1" pageScale="1" pageWidth="1169" pageHeight="827" math="0" shadow="0">
      <root>
        <mxCell id="81XK1yoCQP8enkCrRyyv-0" />
        <mxCell id="81XK1yoCQP8enkCrRyyv-1" parent="81XK1yoCQP8enkCrRyyv-0" />
        <mxCell id="MqtlnmOGcYz5GBzI8yuI-0" value="Salesforce" style="swimlane;" parent="81XK1yoCQP8enkCrRyyv-1" vertex="1">
          <mxGeometry x="760" y="188" width="303" height="368" as="geometry" />
        </mxCell>
        <mxCell id="81XK1yoCQP8enkCrRyyv-10" value="Spryker" style="html=1;outlineConnect=0;whiteSpace=wrap;fillColor=#dae8fc;shape=mxgraph.archimate3.application;appType=comp;archiType=square;strokeColor=#6c8ebf;" parent="MqtlnmOGcYz5GBzI8yuI-0" vertex="1">
          <mxGeometry x="139" y="110" width="150" height="75" as="geometry" />
        </mxCell>
        <mxCell id="h9Nvad7lfALyBZjj1p7K-0" value="Salesforce API" style="html=1;outlineConnect=0;whiteSpace=wrap;fillColor=#dae8fc;shape=mxgraph.archimate3.application;appType=interface;archiType=square;strokeColor=#6c8ebf;" parent="MqtlnmOGcYz5GBzI8yuI-0" vertex="1">
          <mxGeometry x="15" y="110" width="89" height="74" as="geometry" />
        </mxCell>
        <mxCell id="jWsT2XQ5yUzfdX3nsJ4X-5" value="" style="edgeStyle=none;rounded=0;orthogonalLoop=1;jettySize=auto;html=1;entryX=0;entryY=0.5;entryDx=0;entryDy=0;entryPerimeter=0;exitX=1;exitY=0.5;exitDx=0;exitDy=0;exitPerimeter=0;fillColor=#00b9f2;" parent="MqtlnmOGcYz5GBzI8yuI-0" source="h9Nvad7lfALyBZjj1p7K-0" target="81XK1yoCQP8enkCrRyyv-10" edge="1">
          <mxGeometry relative="1" as="geometry">
            <mxPoint x="-21" y="194" as="sourcePoint" />
            <mxPoint x="108" y="451.5" as="targetPoint" />
          </mxGeometry>
        </mxCell>
        <mxCell id="jWsT2XQ5yUzfdX3nsJ4X-6" value="&lt;font style=&quot;font-size: 14px&quot;&gt;&lt;b&gt;3&lt;/b&gt;&lt;/font&gt;" style="edgeLabel;html=1;align=center;verticalAlign=middle;resizable=0;points=[];fillColor=#00b9f2;" parent="jWsT2XQ5yUzfdX3nsJ4X-5" vertex="1" connectable="0">
          <mxGeometry x="0.1385" relative="1" as="geometry">
            <mxPoint y="1" as="offset" />
          </mxGeometry>
        </mxCell>
        <mxCell id="81XK1yoCQP8enkCrRyyv-11" value="DB: Case" style="html=1;outlineConnect=0;whiteSpace=wrap;fillColor=#dae8fc;shape=mxgraph.archimate3.businessObject;overflow=fill;strokeColor=#6c8ebf;" parent="MqtlnmOGcYz5GBzI8yuI-0" vertex="1">
          <mxGeometry x="139" y="226" width="150" height="75" as="geometry" />
        </mxCell>
        <mxCell id="jWsT2XQ5yUzfdX3nsJ4X-7" value="" style="edgeStyle=orthogonalEdgeStyle;html=1;endArrow=open;elbow=vertical;endFill=0;dashed=1;dashPattern=1 4;rounded=0;exitX=0.5;exitY=1;exitDx=0;exitDy=0;exitPerimeter=0;fillColor=#00b9f2;" parent="MqtlnmOGcYz5GBzI8yuI-0" source="81XK1yoCQP8enkCrRyyv-10" target="81XK1yoCQP8enkCrRyyv-11" edge="1">
          <mxGeometry width="160" relative="1" as="geometry">
            <mxPoint x="-308" y="254" as="sourcePoint" />
            <mxPoint x="-428" y="299" as="targetPoint" />
          </mxGeometry>
        </mxCell>
        <mxCell id="vdYNZJYuUwpsePkWU7jM-0" value="ServiceNow" style="swimlane;" parent="81XK1yoCQP8enkCrRyyv-1" vertex="1">
          <mxGeometry x="91" y="188" width="543" height="368" as="geometry" />
        </mxCell>
        <mxCell id="HMI-hT8k7Fz9uOf3o8LM-0" value="IntegrationHub" style="html=1;outlineConnect=0;whiteSpace=wrap;fillColor=#d5e8d4;shape=mxgraph.archimate3.application;appType=collab;archiType=square;verticalAlign=top;strokeColor=#82b366;" parent="vdYNZJYuUwpsePkWU7jM-0" vertex="1">
          <mxGeometry x="270" y="60" width="243" height="155" as="geometry" />
        </mxCell>
        <mxCell id="81XK1yoCQP8enkCrRyyv-7" value="FlowDesigner" style="html=1;outlineConnect=0;whiteSpace=wrap;fillColor=#80b6a1;shape=mxgraph.archimate3.application;appType=comp;archiType=square;verticalAlign=top;" parent="vdYNZJYuUwpsePkWU7jM-0" vertex="1">
          <mxGeometry x="301.5" y="92" width="180" height="100" as="geometry" />
        </mxCell>
        <mxCell id="HMI-hT8k7Fz9uOf3o8LM-1" value="xSpoke" style="html=1;outlineConnect=0;whiteSpace=wrap;fillColor=#80b6a1;shape=mxgraph.archimate3.application;appType=comp;archiType=square;verticalAlign=middle;" parent="vdYNZJYuUwpsePkWU7jM-0" vertex="1">
          <mxGeometry x="329.25" y="122" width="124.5" height="53" as="geometry" />
        </mxCell>
        <mxCell id="KBhlS53yO6O22ywVHkjc-0" value="Note: Not by interface User" style="text;html=1;align=left;verticalAlign=middle;resizable=0;points=[];autosize=1;strokeColor=none;fillColor=none;" parent="vdYNZJYuUwpsePkWU7jM-0" vertex="1">
          <mxGeometry x="25" y="101" width="155" height="18" as="geometry" />
        </mxCell>
        <mxCell id="81XK1yoCQP8enkCrRyyv-2" value="DB: Incident" style="html=1;outlineConnect=0;whiteSpace=wrap;fillColor=#80b6a1;shape=mxgraph.archimate3.businessObject;overflow=fill" parent="vdYNZJYuUwpsePkWU7jM-0" vertex="1">
          <mxGeometry x="131" y="230" width="150" height="75" as="geometry" />
        </mxCell>
        <mxCell id="81XK1yoCQP8enkCrRyyv-15" value="" style="edgeStyle=orthogonalEdgeStyle;html=1;endArrow=open;elbow=vertical;endFill=0;dashed=1;dashPattern=1 4;rounded=0;exitX=0.5;exitY=1;exitDx=0;exitDy=0;exitPerimeter=0;entryX=1;entryY=0.5;entryDx=0;entryDy=0;entryPerimeter=0;fillColor=#80b6a1;" parent="vdYNZJYuUwpsePkWU7jM-0" source="81XK1yoCQP8enkCrRyyv-7" target="81XK1yoCQP8enkCrRyyv-2" edge="1">
          <mxGeometry width="160" relative="1" as="geometry">
            <mxPoint x="729" y="555.5" as="sourcePoint" />
            <mxPoint x="889" y="555.5" as="targetPoint" />
          </mxGeometry>
        </mxCell>
        <mxCell id="81XK1yoCQP8enkCrRyyv-13" value="" style="edgeStyle=none;rounded=0;orthogonalLoop=1;jettySize=auto;html=1;fillColor=#80b6a1;" parent="81XK1yoCQP8enkCrRyyv-1" source="81XK1yoCQP8enkCrRyyv-3" target="81XK1yoCQP8enkCrRyyv-7" edge="1">
          <mxGeometry relative="1" as="geometry" />
        </mxCell>
        <mxCell id="jWsT2XQ5yUzfdX3nsJ4X-2" value="&lt;font style=&quot;font-size: 14px&quot;&gt;&lt;b&gt;1&lt;/b&gt;&lt;/font&gt;" style="edgeLabel;html=1;align=center;verticalAlign=middle;resizable=0;points=[];fillColor=#80b6a1;" parent="81XK1yoCQP8enkCrRyyv-13" vertex="1" connectable="0">
          <mxGeometry x="0.1385" relative="1" as="geometry">
            <mxPoint y="1" as="offset" />
          </mxGeometry>
        </mxCell>
        <mxCell id="81XK1yoCQP8enkCrRyyv-3" value="Data Changes" style="html=1;outlineConnect=0;whiteSpace=wrap;fillColor=#80b6a1;shape=mxgraph.archimate3.event;" parent="81XK1yoCQP8enkCrRyyv-1" vertex="1">
          <mxGeometry x="131" y="309.5" width="130" height="45" as="geometry" />
        </mxCell>
        <mxCell id="81XK1yoCQP8enkCrRyyv-14" value="" style="edgeStyle=orthogonalEdgeStyle;html=1;endArrow=open;elbow=vertical;endFill=0;dashed=1;dashPattern=1 4;rounded=0;exitX=0;exitY=0;exitDx=53.75;exitDy=45;exitPerimeter=0;entryX=0;entryY=0.5;entryDx=0;entryDy=0;entryPerimeter=0;fillColor=#80b6a1;" parent="81XK1yoCQP8enkCrRyyv-1" source="81XK1yoCQP8enkCrRyyv-3" target="81XK1yoCQP8enkCrRyyv-2" edge="1">
          <mxGeometry width="160" relative="1" as="geometry">
            <mxPoint x="820" y="743.5" as="sourcePoint" />
            <mxPoint x="980" y="743.5" as="targetPoint" />
          </mxGeometry>
        </mxCell>
        <mxCell id="jWsT2XQ5yUzfdX3nsJ4X-3" value="" style="edgeStyle=none;rounded=0;orthogonalLoop=1;jettySize=auto;html=1;exitX=1;exitY=0.5;exitDx=0;exitDy=0;exitPerimeter=0;entryX=0;entryY=0.5;entryDx=0;entryDy=0;entryPerimeter=0;" parent="81XK1yoCQP8enkCrRyyv-1" source="HMI-hT8k7Fz9uOf3o8LM-1" target="h9Nvad7lfALyBZjj1p7K-0" edge="1">
          <mxGeometry relative="1" as="geometry">
            <mxPoint x="430" y="533.5" as="sourcePoint" />
            <mxPoint x="721" y="307" as="targetPoint" />
          </mxGeometry>
        </mxCell>
        <mxCell id="jWsT2XQ5yUzfdX3nsJ4X-4" value="&lt;font style=&quot;font-size: 14px&quot;&gt;&lt;b&gt;2&lt;/b&gt;&lt;/font&gt;" style="edgeLabel;html=1;align=center;verticalAlign=middle;resizable=0;points=[];" parent="jWsT2XQ5yUzfdX3nsJ4X-3" vertex="1" connectable="0">
          <mxGeometry x="0.1385" relative="1" as="geometry">
            <mxPoint y="1" as="offset" />
          </mxGeometry>
        </mxCell>
        <mxCell id="jWsT2XQ5yUzfdX3nsJ4X-24" value="OAuth 2.0 over TLS 1.2&lt;br&gt;&lt;div&gt;JSON: Snow2Spryker&lt;/div&gt;" style="html=1;outlineConnect=0;whiteSpace=wrap;fillColor=#ffff99;shape=mxgraph.archimate3.representation;fontSize=14;align=left;" parent="81XK1yoCQP8enkCrRyyv-1" vertex="1">
          <mxGeometry x="616" y="422" width="167" height="62" as="geometry" />
        </mxCell>
        <mxCell id="jWsT2XQ5yUzfdX3nsJ4X-25" value="" style="edgeStyle=orthogonalEdgeStyle;html=1;endArrow=open;elbow=vertical;endFill=0;dashed=1;dashPattern=1 4;rounded=0;exitX=0.75;exitY=1;exitDx=0;exitDy=0;exitPerimeter=0;fillColor=#80b6a1;entryX=0;entryY=0.5;entryDx=0;entryDy=0;entryPerimeter=0;" parent="81XK1yoCQP8enkCrRyyv-1" source="81XK1yoCQP8enkCrRyyv-7" target="jWsT2XQ5yUzfdX3nsJ4X-24" edge="1">
          <mxGeometry width="160" relative="1" as="geometry">
            <mxPoint x="433" y="426" as="sourcePoint" />
            <mxPoint x="392" y="483.5" as="targetPoint" />
          </mxGeometry>
        </mxCell>
        <mxCell id="jWsT2XQ5yUzfdX3nsJ4X-27" value="" style="edgeStyle=orthogonalEdgeStyle;html=1;endArrow=open;elbow=vertical;endFill=0;dashed=1;dashPattern=1 4;rounded=0;exitX=0.5;exitY=1;exitDx=0;exitDy=0;exitPerimeter=0;entryX=1;entryY=0.5;entryDx=0;entryDy=0;entryPerimeter=0;fillColor=#80b6a1;" parent="81XK1yoCQP8enkCrRyyv-1" source="h9Nvad7lfALyBZjj1p7K-0" target="jWsT2XQ5yUzfdX3nsJ4X-24" edge="1">
          <mxGeometry width="160" relative="1" as="geometry">
            <mxPoint x="685.5" y="419.5" as="sourcePoint" />
            <mxPoint x="798" y="463" as="targetPoint" />
          </mxGeometry>
        </mxCell>
      </root>
    </mxGraphModel>
  </diagram>
  <diagram name="SolMan2Snow" id="dzXLgFu5kCELv6eDoe2H">
    <mxGraphModel dx="893" dy="626" grid="0" gridSize="10" guides="1" tooltips="1" connect="1" arrows="1" fold="1" page="1" pageScale="1" pageWidth="1169" pageHeight="827" math="0" shadow="0">
      <root>
        <mxCell id="F9APMmuDTnzzyMu7kRmX-0" />
        <mxCell id="F9APMmuDTnzzyMu7kRmX-1" parent="F9APMmuDTnzzyMu7kRmX-0" />
        <mxCell id="qsrvD96HAVr1Hq4GsfjR-0" value="Salesforce" style="swimlane;" parent="F9APMmuDTnzzyMu7kRmX-1" vertex="1">
          <mxGeometry x="677" y="199" width="393" height="368" as="geometry" />
        </mxCell>
        <mxCell id="ruSx7ASNIpoHtBBjnpcI-0" value="ServiceNow" style="swimlane;" parent="F9APMmuDTnzzyMu7kRmX-1" vertex="1">
          <mxGeometry x="79" y="199" width="377" height="368" as="geometry" />
        </mxCell>
        <mxCell id="U7hU7KtPK79yw-BazNi6-0" value="Considered alternative to &quot;Scripted REST API&quot; were:&lt;div align=&quot;left&quot;&gt;1) Destination Table REST API&lt;/div&gt;&lt;div align=&quot;left&quot;&gt;2) Import table REST API&lt;br&gt;&lt;/div&gt;" style="text;html=1;align=left;verticalAlign=middle;resizable=0;points=[];autosize=1;strokeColor=none;fillColor=none;" parent="ruSx7ASNIpoHtBBjnpcI-0" vertex="1">
          <mxGeometry x="75" y="62" width="290" height="46" as="geometry" />
        </mxCell>
        <mxCell id="F9APMmuDTnzzyMu7kRmX-18" value="Data Changes" style="html=1;outlineConnect=0;whiteSpace=wrap;fillColor=#dae8fc;shape=mxgraph.archimate3.event;direction=west;strokeColor=#6c8ebf;" parent="F9APMmuDTnzzyMu7kRmX-1" vertex="1">
          <mxGeometry x="927" y="334.5" width="130" height="45" as="geometry" />
        </mxCell>
        <mxCell id="F9APMmuDTnzzyMu7kRmX-19" value="DB: Case" style="html=1;outlineConnect=0;whiteSpace=wrap;fillColor=#dae8fc;shape=mxgraph.archimate3.businessObject;overflow=fill;strokeColor=#6c8ebf;" parent="F9APMmuDTnzzyMu7kRmX-1" vertex="1">
          <mxGeometry x="823" y="434.5" width="150" height="75" as="geometry" />
        </mxCell>
        <mxCell id="F9APMmuDTnzzyMu7kRmX-20" value="Spryker" style="html=1;outlineConnect=0;whiteSpace=wrap;fillColor=#dae8fc;shape=mxgraph.archimate3.application;appType=comp;archiType=square;strokeColor=#6c8ebf;" parent="F9APMmuDTnzzyMu7kRmX-1" vertex="1">
          <mxGeometry x="703" y="319.5" width="150" height="75" as="geometry" />
        </mxCell>
        <mxCell id="F9APMmuDTnzzyMu7kRmX-22" value="ServiceNow: Scripted REST API" style="html=1;outlineConnect=0;whiteSpace=wrap;fillColor=#80b6a1;shape=mxgraph.archimate3.application;appType=comp;archiType=square;" parent="F9APMmuDTnzzyMu7kRmX-1" vertex="1">
          <mxGeometry x="222" y="317" width="180" height="77.5" as="geometry" />
        </mxCell>
        <mxCell id="F9APMmuDTnzzyMu7kRmX-23" value="DB: Change Request+Task" style="html=1;outlineConnect=0;whiteSpace=wrap;fillColor=#80b6a1;shape=mxgraph.archimate3.businessObject;overflow=fill" parent="F9APMmuDTnzzyMu7kRmX-1" vertex="1">
          <mxGeometry x="113" y="434.5" width="150" height="75" as="geometry" />
        </mxCell>
        <mxCell id="F9APMmuDTnzzyMu7kRmX-24" value="" style="edgeStyle=orthogonalEdgeStyle;html=1;endArrow=open;elbow=vertical;endFill=0;dashed=1;dashPattern=1 4;rounded=0;exitX=0;exitY=0;exitDx=53.75;exitDy=0;exitPerimeter=0;fillColor=#00b9f2;entryX=1;entryY=0.5;entryDx=0;entryDy=0;entryPerimeter=0;" parent="F9APMmuDTnzzyMu7kRmX-1" source="F9APMmuDTnzzyMu7kRmX-18" target="F9APMmuDTnzzyMu7kRmX-19" edge="1">
          <mxGeometry width="160" relative="1" as="geometry">
            <mxPoint x="916.5" y="314.5" as="sourcePoint" />
            <mxPoint x="961.5" y="372" as="targetPoint" />
          </mxGeometry>
        </mxCell>
        <mxCell id="F9APMmuDTnzzyMu7kRmX-25" value="" style="edgeStyle=orthogonalEdgeStyle;html=1;endArrow=open;elbow=vertical;endFill=0;dashed=1;dashPattern=1 4;rounded=0;exitX=0.5;exitY=1;exitDx=0;exitDy=0;exitPerimeter=0;fillColor=#00b9f2;entryX=0;entryY=0.5;entryDx=0;entryDy=0;entryPerimeter=0;" parent="F9APMmuDTnzzyMu7kRmX-1" source="F9APMmuDTnzzyMu7kRmX-20" target="F9APMmuDTnzzyMu7kRmX-19" edge="1">
          <mxGeometry width="160" relative="1" as="geometry">
            <mxPoint x="673" y="434.5" as="sourcePoint" />
            <mxPoint x="718" y="492" as="targetPoint" />
          </mxGeometry>
        </mxCell>
        <mxCell id="F9APMmuDTnzzyMu7kRmX-26" value="" style="edgeStyle=orthogonalEdgeStyle;html=1;endArrow=open;elbow=vertical;endFill=0;dashed=1;dashPattern=1 4;rounded=0;exitX=0.5;exitY=1;exitDx=0;exitDy=0;exitPerimeter=0;fillColor=#00b9f2;entryX=1;entryY=0.5;entryDx=0;entryDy=0;entryPerimeter=0;" parent="F9APMmuDTnzzyMu7kRmX-1" source="F9APMmuDTnzzyMu7kRmX-22" target="F9APMmuDTnzzyMu7kRmX-23" edge="1">
          <mxGeometry width="160" relative="1" as="geometry">
            <mxPoint x="683" y="444.5" as="sourcePoint" />
            <mxPoint x="728" y="502" as="targetPoint" />
          </mxGeometry>
        </mxCell>
        <mxCell id="F9APMmuDTnzzyMu7kRmX-27" value="" style="edgeStyle=none;rounded=0;orthogonalLoop=1;jettySize=auto;html=1;fillColor=#80b6a1;exitX=1;exitY=0.5;exitDx=0;exitDy=0;exitPerimeter=0;entryX=1;entryY=0.5;entryDx=0;entryDy=0;entryPerimeter=0;" parent="F9APMmuDTnzzyMu7kRmX-1" source="F9APMmuDTnzzyMu7kRmX-18" target="F9APMmuDTnzzyMu7kRmX-20" edge="1">
          <mxGeometry relative="1" as="geometry">
            <mxPoint x="803" y="207.5" as="sourcePoint" />
            <mxPoint x="653" y="207.5" as="targetPoint" />
          </mxGeometry>
        </mxCell>
        <mxCell id="F9APMmuDTnzzyMu7kRmX-28" value="&lt;font style=&quot;font-size: 14px&quot;&gt;&lt;b&gt;A&lt;/b&gt;&lt;/font&gt;" style="edgeLabel;html=1;align=center;verticalAlign=middle;resizable=0;points=[];fillColor=#80b6a1;" parent="F9APMmuDTnzzyMu7kRmX-27" vertex="1" connectable="0">
          <mxGeometry x="0.1385" relative="1" as="geometry">
            <mxPoint y="1" as="offset" />
          </mxGeometry>
        </mxCell>
        <mxCell id="F9APMmuDTnzzyMu7kRmX-29" value="" style="edgeStyle=none;rounded=0;orthogonalLoop=1;jettySize=auto;html=1;fillColor=#80b6a1;exitX=0;exitY=0.5;exitDx=0;exitDy=0;exitPerimeter=0;" parent="F9APMmuDTnzzyMu7kRmX-1" source="F9APMmuDTnzzyMu7kRmX-20" edge="1">
          <mxGeometry relative="1" as="geometry">
            <mxPoint x="674" y="435.75" as="sourcePoint" />
            <mxPoint x="629" y="356.37919463087246" as="targetPoint" />
          </mxGeometry>
        </mxCell>
        <mxCell id="F9APMmuDTnzzyMu7kRmX-30" value="&lt;font style=&quot;font-size: 14px&quot;&gt;&lt;b&gt;B&lt;/b&gt;&lt;/font&gt;" style="edgeLabel;html=1;align=center;verticalAlign=middle;resizable=0;points=[];fillColor=#80b6a1;" parent="F9APMmuDTnzzyMu7kRmX-29" vertex="1" connectable="0">
          <mxGeometry x="0.1385" relative="1" as="geometry">
            <mxPoint y="1" as="offset" />
          </mxGeometry>
        </mxCell>
        <mxCell id="F9APMmuDTnzzyMu7kRmX-31" value="" style="edgeStyle=none;rounded=0;orthogonalLoop=1;jettySize=auto;html=1;fillColor=#80b6a1;exitX=0;exitY=0.5;exitDx=0;exitDy=0;exitPerimeter=0;entryX=1;entryY=0.5;entryDx=0;entryDy=0;entryPerimeter=0;" parent="F9APMmuDTnzzyMu7kRmX-1" target="F9APMmuDTnzzyMu7kRmX-22" edge="1">
          <mxGeometry relative="1" as="geometry">
            <mxPoint x="479" y="355.75" as="sourcePoint" />
            <mxPoint x="423" y="454.5" as="targetPoint" />
          </mxGeometry>
        </mxCell>
        <mxCell id="F9APMmuDTnzzyMu7kRmX-32" value="&lt;font style=&quot;font-size: 14px&quot;&gt;&lt;b&gt;C&lt;/b&gt;&lt;/font&gt;" style="edgeLabel;html=1;align=center;verticalAlign=middle;resizable=0;points=[];fillColor=#80b6a1;" parent="F9APMmuDTnzzyMu7kRmX-31" vertex="1" connectable="0">
          <mxGeometry x="0.1385" relative="1" as="geometry">
            <mxPoint y="1" as="offset" />
          </mxGeometry>
        </mxCell>
        <mxCell id="F9APMmuDTnzzyMu7kRmX-36" value="" style="edgeStyle=orthogonalEdgeStyle;html=1;endArrow=open;elbow=vertical;endFill=0;dashed=1;dashPattern=1 4;rounded=0;exitX=0.25;exitY=1;exitDx=0;exitDy=0;exitPerimeter=0;entryX=1;entryY=0.5;entryDx=0;entryDy=0;entryPerimeter=0;fillColor=#80b6a1;" parent="F9APMmuDTnzzyMu7kRmX-1" source="F9APMmuDTnzzyMu7kRmX-20" target="F9APMmuDTnzzyMu7kRmX-38" edge="1">
          <mxGeometry width="160" relative="1" as="geometry">
            <mxPoint x="361" y="-23" as="sourcePoint" />
            <mxPoint x="320" y="34.5" as="targetPoint" />
          </mxGeometry>
        </mxCell>
        <mxCell id="F9APMmuDTnzzyMu7kRmX-37" value="" style="edgeStyle=orthogonalEdgeStyle;html=1;endArrow=open;elbow=vertical;endFill=0;dashed=1;dashPattern=1 4;rounded=0;exitX=0.75;exitY=1;exitDx=0;exitDy=0;exitPerimeter=0;fillColor=#80b6a1;entryX=0;entryY=0.5;entryDx=0;entryDy=0;entryPerimeter=0;" parent="F9APMmuDTnzzyMu7kRmX-1" source="F9APMmuDTnzzyMu7kRmX-22" target="F9APMmuDTnzzyMu7kRmX-38" edge="1">
          <mxGeometry width="160" relative="1" as="geometry">
            <mxPoint x="371" y="-13" as="sourcePoint" />
            <mxPoint x="330" y="44.5" as="targetPoint" />
          </mxGeometry>
        </mxCell>
        <mxCell id="F9APMmuDTnzzyMu7kRmX-38" value="JSON: SolMan2Snow" style="html=1;outlineConnect=0;whiteSpace=wrap;fillColor=#ffff99;shape=mxgraph.archimate3.representation;fontSize=14;align=left;" parent="F9APMmuDTnzzyMu7kRmX-1" vertex="1">
          <mxGeometry x="495" y="452" width="143" height="62" as="geometry" />
        </mxCell>
      </root>
    </mxGraphModel>
  </diagram>
</mxfile>
